<mxfile host="Electron" agent="Mozilla/5.0 (Windows NT 10.0; Win64; x64) AppleWebKit/537.36 (KHTML, like Gecko) draw.io/25.0.2 Chrome/128.0.6613.186 Electron/32.2.5 Safari/537.36" version="25.0.2">
  <diagram name="Page-1" id="IpAPOCpC4ylQTNi8Gn4r">
    <mxGraphModel dx="1000" dy="624" grid="1" gridSize="10" guides="1" tooltips="1" connect="1" arrows="1" fold="1" page="1" pageScale="1" pageWidth="850" pageHeight="1100" math="0" shadow="0">
      <root>
        <mxCell id="0" />
        <mxCell id="1" parent="0" />
        <mxCell id="iideVhp8Bdq9jj2erbfe-7" value="" style="rounded=0;whiteSpace=wrap;html=1;" vertex="1" parent="1">
          <mxGeometry x="125" y="120" width="790" height="450" as="geometry" />
        </mxCell>
        <mxCell id="iideVhp8Bdq9jj2erbfe-1" value="" style="rounded=1;whiteSpace=wrap;html=1;" vertex="1" parent="1">
          <mxGeometry x="140" y="140" width="760" height="50" as="geometry" />
        </mxCell>
        <mxCell id="iideVhp8Bdq9jj2erbfe-2" value="" style="endArrow=none;html=1;rounded=0;" edge="1" parent="1">
          <mxGeometry width="50" height="50" relative="1" as="geometry">
            <mxPoint x="160" y="154.83" as="sourcePoint" />
            <mxPoint x="180" y="154.83" as="targetPoint" />
          </mxGeometry>
        </mxCell>
        <mxCell id="iideVhp8Bdq9jj2erbfe-3" value="" style="endArrow=none;html=1;rounded=0;" edge="1" parent="1">
          <mxGeometry width="50" height="50" relative="1" as="geometry">
            <mxPoint x="160" y="164.83" as="sourcePoint" />
            <mxPoint x="180" y="164.83" as="targetPoint" />
          </mxGeometry>
        </mxCell>
        <mxCell id="iideVhp8Bdq9jj2erbfe-4" value="" style="endArrow=none;html=1;rounded=0;" edge="1" parent="1">
          <mxGeometry width="50" height="50" relative="1" as="geometry">
            <mxPoint x="160" y="174.83" as="sourcePoint" />
            <mxPoint x="180" y="174.83" as="targetPoint" />
          </mxGeometry>
        </mxCell>
        <mxCell id="iideVhp8Bdq9jj2erbfe-5" value="Home" style="text;html=1;align=center;verticalAlign=middle;whiteSpace=wrap;rounded=0;" vertex="1" parent="1">
          <mxGeometry x="210" y="150" width="60" height="30" as="geometry" />
        </mxCell>
        <mxCell id="iideVhp8Bdq9jj2erbfe-6" value="Logout" style="text;html=1;align=center;verticalAlign=middle;whiteSpace=wrap;rounded=0;" vertex="1" parent="1">
          <mxGeometry x="290" y="150" width="60" height="30" as="geometry" />
        </mxCell>
        <mxCell id="iideVhp8Bdq9jj2erbfe-8" value="" style="rounded=1;whiteSpace=wrap;html=1;" vertex="1" parent="1">
          <mxGeometry x="150" y="240" width="740" height="290" as="geometry" />
        </mxCell>
        <mxCell id="iideVhp8Bdq9jj2erbfe-9" value="&lt;h1 style=&quot;margin-top: 0px;&quot;&gt;&lt;font style=&quot;font-size: 20px;&quot;&gt;View Lab Tests&lt;/font&gt;&lt;/h1&gt;" style="text;html=1;whiteSpace=wrap;overflow=hidden;rounded=0;align=center;" vertex="1" parent="1">
          <mxGeometry x="430" y="250" width="180" height="40" as="geometry" />
        </mxCell>
        <mxCell id="iideVhp8Bdq9jj2erbfe-10" value="" style="rounded=1;whiteSpace=wrap;html=1;" vertex="1" parent="1">
          <mxGeometry x="170" y="315" width="700" height="155" as="geometry" />
        </mxCell>
        <mxCell id="iideVhp8Bdq9jj2erbfe-11" value="" style="endArrow=none;html=1;rounded=0;entryX=1;entryY=0.288;entryDx=0;entryDy=0;entryPerimeter=0;" edge="1" parent="1" target="iideVhp8Bdq9jj2erbfe-10">
          <mxGeometry width="50" height="50" relative="1" as="geometry">
            <mxPoint x="170" y="360" as="sourcePoint" />
            <mxPoint x="220" y="310" as="targetPoint" />
          </mxGeometry>
        </mxCell>
        <mxCell id="iideVhp8Bdq9jj2erbfe-12" value="" style="rounded=0;whiteSpace=wrap;html=1;" vertex="1" parent="1">
          <mxGeometry x="180" y="375" width="20" height="20" as="geometry" />
        </mxCell>
        <mxCell id="iideVhp8Bdq9jj2erbfe-13" value="" style="endArrow=none;html=1;rounded=0;entryX=0.999;entryY=0.605;entryDx=0;entryDy=0;entryPerimeter=0;" edge="1" parent="1" target="iideVhp8Bdq9jj2erbfe-10">
          <mxGeometry width="50" height="50" relative="1" as="geometry">
            <mxPoint x="170" y="410" as="sourcePoint" />
            <mxPoint x="220" y="360" as="targetPoint" />
          </mxGeometry>
        </mxCell>
        <mxCell id="iideVhp8Bdq9jj2erbfe-14" value="" style="rounded=0;whiteSpace=wrap;html=1;" vertex="1" parent="1">
          <mxGeometry x="180" y="430" width="20" height="20" as="geometry" />
        </mxCell>
        <mxCell id="iideVhp8Bdq9jj2erbfe-15" value="" style="html=1;dashed=0;aspect=fixed;verticalLabelPosition=bottom;verticalAlign=top;align=center;shape=mxgraph.gmdl.edit;strokeColor=none;fillColor=#737373;shadow=0;sketch=0;" vertex="1" parent="1">
          <mxGeometry x="840" y="375" width="20" height="20" as="geometry" />
        </mxCell>
        <mxCell id="iideVhp8Bdq9jj2erbfe-16" value="" style="html=1;dashed=0;aspect=fixed;verticalLabelPosition=bottom;verticalAlign=top;align=center;shape=mxgraph.gmdl.edit;strokeColor=none;fillColor=#737373;shadow=0;sketch=0;" vertex="1" parent="1">
          <mxGeometry x="840" y="430" width="20" height="20" as="geometry" />
        </mxCell>
        <mxCell id="iideVhp8Bdq9jj2erbfe-17" value="Header 1" style="text;html=1;align=center;verticalAlign=middle;whiteSpace=wrap;rounded=0;" vertex="1" parent="1">
          <mxGeometry x="250" y="325" width="60" height="30" as="geometry" />
        </mxCell>
        <mxCell id="iideVhp8Bdq9jj2erbfe-18" value="Header 2" style="text;html=1;align=center;verticalAlign=middle;whiteSpace=wrap;rounded=0;" vertex="1" parent="1">
          <mxGeometry x="460" y="325" width="60" height="30" as="geometry" />
        </mxCell>
        <mxCell id="iideVhp8Bdq9jj2erbfe-19" value="Header 3" style="text;html=1;align=center;verticalAlign=middle;whiteSpace=wrap;rounded=0;" vertex="1" parent="1">
          <mxGeometry x="660" y="325" width="60" height="30" as="geometry" />
        </mxCell>
        <mxCell id="iideVhp8Bdq9jj2erbfe-20" value="Value 1" style="text;html=1;align=center;verticalAlign=middle;whiteSpace=wrap;rounded=0;" vertex="1" parent="1">
          <mxGeometry x="250" y="375" width="60" height="30" as="geometry" />
        </mxCell>
        <mxCell id="iideVhp8Bdq9jj2erbfe-21" value="Value 1" style="text;html=1;align=center;verticalAlign=middle;whiteSpace=wrap;rounded=0;" vertex="1" parent="1">
          <mxGeometry x="250" y="425" width="60" height="30" as="geometry" />
        </mxCell>
        <mxCell id="iideVhp8Bdq9jj2erbfe-22" value="Value 2" style="text;html=1;align=center;verticalAlign=middle;whiteSpace=wrap;rounded=0;" vertex="1" parent="1">
          <mxGeometry x="460" y="370" width="60" height="30" as="geometry" />
        </mxCell>
        <mxCell id="iideVhp8Bdq9jj2erbfe-23" value="Value 2" style="text;html=1;align=center;verticalAlign=middle;whiteSpace=wrap;rounded=0;" vertex="1" parent="1">
          <mxGeometry x="460" y="425" width="60" height="30" as="geometry" />
        </mxCell>
        <mxCell id="iideVhp8Bdq9jj2erbfe-24" value="Value 3" style="text;html=1;align=center;verticalAlign=middle;whiteSpace=wrap;rounded=0;" vertex="1" parent="1">
          <mxGeometry x="660" y="370" width="60" height="30" as="geometry" />
        </mxCell>
        <mxCell id="iideVhp8Bdq9jj2erbfe-25" value="Value 3" style="text;html=1;align=center;verticalAlign=middle;whiteSpace=wrap;rounded=0;" vertex="1" parent="1">
          <mxGeometry x="660" y="425" width="60" height="30" as="geometry" />
        </mxCell>
        <mxCell id="iideVhp8Bdq9jj2erbfe-26" value="" style="rounded=1;whiteSpace=wrap;html=1;" vertex="1" parent="1">
          <mxGeometry x="380" y="200" width="120" height="30" as="geometry" />
        </mxCell>
        <mxCell id="iideVhp8Bdq9jj2erbfe-27" value="Search" style="rounded=1;whiteSpace=wrap;html=1;fillColor=#CCCCCC;strokeColor=#000000;" vertex="1" parent="1">
          <mxGeometry x="510" y="197.5" width="120" height="35" as="geometry" />
        </mxCell>
        <mxCell id="iideVhp8Bdq9jj2erbfe-28" value="" style="endArrow=classic;html=1;rounded=0;entryX=0.5;entryY=0;entryDx=0;entryDy=0;" edge="1" parent="1" target="iideVhp8Bdq9jj2erbfe-26">
          <mxGeometry width="50" height="50" relative="1" as="geometry">
            <mxPoint x="510" y="110" as="sourcePoint" />
            <mxPoint x="420" y="50" as="targetPoint" />
          </mxGeometry>
        </mxCell>
        <mxCell id="iideVhp8Bdq9jj2erbfe-29" value="" style="endArrow=classic;html=1;rounded=0;entryX=0.5;entryY=0;entryDx=0;entryDy=0;" edge="1" parent="1" target="iideVhp8Bdq9jj2erbfe-27">
          <mxGeometry width="50" height="50" relative="1" as="geometry">
            <mxPoint x="590" y="110" as="sourcePoint" />
            <mxPoint x="640" y="60" as="targetPoint" />
          </mxGeometry>
        </mxCell>
        <mxCell id="iideVhp8Bdq9jj2erbfe-30" value="" style="endArrow=classic;html=1;rounded=0;exitX=1;exitY=1;exitDx=0;exitDy=0;" edge="1" parent="1" source="iideVhp8Bdq9jj2erbfe-34">
          <mxGeometry width="50" height="50" relative="1" as="geometry">
            <mxPoint x="110" y="440" as="sourcePoint" />
            <mxPoint x="180" y="380" as="targetPoint" />
          </mxGeometry>
        </mxCell>
        <mxCell id="iideVhp8Bdq9jj2erbfe-32" value="Delete" style="rounded=1;whiteSpace=wrap;html=1;fillColor=#CCCCCC;strokeColor=#000000;" vertex="1" parent="1">
          <mxGeometry x="380" y="480" width="120" height="35" as="geometry" />
        </mxCell>
        <mxCell id="iideVhp8Bdq9jj2erbfe-33" value="Add Lab Tests" style="rounded=1;whiteSpace=wrap;html=1;fillColor=#CCCCCC;strokeColor=#000000;" vertex="1" parent="1">
          <mxGeometry x="510" y="480" width="120" height="35" as="geometry" />
        </mxCell>
        <mxCell id="iideVhp8Bdq9jj2erbfe-34" value="Radio button that will select the instance for which its values (like name) will be shown alongside." style="text;html=1;align=center;verticalAlign=middle;whiteSpace=wrap;rounded=0;" vertex="1" parent="1">
          <mxGeometry x="10" y="315" width="100" height="30" as="geometry" />
        </mxCell>
        <mxCell id="iideVhp8Bdq9jj2erbfe-37" value="Name" style="text;html=1;align=center;verticalAlign=middle;whiteSpace=wrap;rounded=0;" vertex="1" parent="1">
          <mxGeometry x="380" y="200" width="60" height="30" as="geometry" />
        </mxCell>
        <mxCell id="iideVhp8Bdq9jj2erbfe-38" value="Input field that will filter the results based on the name provided" style="text;html=1;align=center;verticalAlign=middle;whiteSpace=wrap;rounded=0;" vertex="1" parent="1">
          <mxGeometry x="390" y="80" width="140" height="30" as="geometry" />
        </mxCell>
        <mxCell id="iideVhp8Bdq9jj2erbfe-39" value="Button that will make the request to the backend for filtered results" style="text;html=1;align=center;verticalAlign=middle;whiteSpace=wrap;rounded=0;" vertex="1" parent="1">
          <mxGeometry x="570" y="80" width="140" height="30" as="geometry" />
        </mxCell>
        <mxCell id="iideVhp8Bdq9jj2erbfe-40" value="" style="endArrow=classic;html=1;rounded=0;" edge="1" parent="1" source="iideVhp8Bdq9jj2erbfe-41">
          <mxGeometry width="50" height="50" relative="1" as="geometry">
            <mxPoint x="120" y="460" as="sourcePoint" />
            <mxPoint x="260" y="440" as="targetPoint" />
          </mxGeometry>
        </mxCell>
        <mxCell id="iideVhp8Bdq9jj2erbfe-41" value="Particular value for a lab test instance matching the header" style="text;html=1;align=center;verticalAlign=middle;whiteSpace=wrap;rounded=0;" vertex="1" parent="1">
          <mxGeometry x="20" y="420" width="105" height="30" as="geometry" />
        </mxCell>
        <mxCell id="iideVhp8Bdq9jj2erbfe-43" value="" style="endArrow=classic;html=1;rounded=0;entryX=0.5;entryY=0.25;entryDx=0;entryDy=0;entryPerimeter=0;" edge="1" parent="1" target="iideVhp8Bdq9jj2erbfe-15">
          <mxGeometry width="50" height="50" relative="1" as="geometry">
            <mxPoint x="840" y="110" as="sourcePoint" />
            <mxPoint x="890" y="60" as="targetPoint" />
          </mxGeometry>
        </mxCell>
        <mxCell id="iideVhp8Bdq9jj2erbfe-44" value="Edit button to update the values for an instance" style="text;html=1;align=center;verticalAlign=middle;whiteSpace=wrap;rounded=0;" vertex="1" parent="1">
          <mxGeometry x="740" y="80" width="110" height="30" as="geometry" />
        </mxCell>
        <mxCell id="iideVhp8Bdq9jj2erbfe-46" value="" style="shape=curlyBracket;whiteSpace=wrap;html=1;rounded=1;labelPosition=left;verticalLabelPosition=middle;align=right;verticalAlign=middle;size=0.5;" vertex="1" parent="1">
          <mxGeometry x="350" y="472.5" width="20" height="50" as="geometry" />
        </mxCell>
        <mxCell id="iideVhp8Bdq9jj2erbfe-47" value="" style="endArrow=classic;html=1;rounded=0;" edge="1" parent="1">
          <mxGeometry width="50" height="50" relative="1" as="geometry">
            <mxPoint x="120" y="520" as="sourcePoint" />
            <mxPoint x="350" y="500" as="targetPoint" />
          </mxGeometry>
        </mxCell>
        <mxCell id="iideVhp8Bdq9jj2erbfe-48" value="Buttons for further actions. Here, deleting one of the selected medicines or getting redirected to a page to add lab test instance." style="text;html=1;align=center;verticalAlign=middle;whiteSpace=wrap;rounded=0;" vertex="1" parent="1">
          <mxGeometry x="10" y="515" width="115" height="30" as="geometry" />
        </mxCell>
      </root>
    </mxGraphModel>
  </diagram>
</mxfile>
